# xmcd
#
# Track frame offsets: 
#        182
#        13442
#        33845
#        48467
#        62645
#        76520
#        99722
#        110327
#        124855
#        134910
#        155922
#        169200
#
# Disc length: 2494 seconds
#
# Revision: 8
# Processed by: cddbd v1.5.2PL0 Copyright (c) Steve Scherf et al.
# Submitted via: ExactAudioCopy v1.3
#
DISCID=a609bc0c
DTITLE=Various Artist - Star of Wonder - A Country Christmas Collection
DYEAR=1996
DGENRE=Country
TTITLE0=Alan Jackson - Rudolph The Red Nosed Reindeer
TTITLE1=Steve Wariner - Silent Night
TTITLE2=The Tractors - Swingin' Home For Christmas
TTITLE3=Radney Foster - The Christmas Song
TTITLE4=Blackhawk - We Three Kings (Star Of Wonder)
TTITLE5=Lee Roy Parnell - Please Come Home For Christmas
TTITLE6=Tammy Graham - Rockin' Around The Christmas Tree
TTITLE7=Brooks and Dunn - Cabin In The Valley
TTITLE8=BR5-49 - It Came Upon A Midnight Clear
TTITLE9=Brett James - What Child Is This
TTITLE10=Michelle Wright - White Christmas
TTITLE11=Diamond Rio - Christmas Spirit
EXTD=
EXTT0=Alan Jackson
EXTT1=Steve Wariner
EXTT2=The Tractors
EXTT3=Radney Foster
EXTT4=BlackHawk
EXTT5=Lee Roy Parnell
EXTT6=Tammy Graham
EXTT7=Brooks and Dunn
EXTT8=BR5-49
EXTT9=Brett James
EXTT10=Michelle Wright
EXTT11=Diamond Rio
PLAYORDER=
